<?xml version="1.0" encoding="UTF-8"?>
<svg id="Text" xmlns="http://www.w3.org/2000/svg" width="907" height="131" viewBox="0 0 907 131">
  <defs>
    <style>
      .cls-1 {
        fill: #fe8e06;
      }
    </style>
  </defs>
  <g id="Black">
    <path d="M75.35,40.57c-3.25-2.64-6.5-4.6-9.75-5.87-3.25-1.27-6.4-1.9-9.45-1.9-3.86,0-7.01,.91-9.45,2.74-2.44,1.83-3.66,4.22-3.66,7.16,0,2.03,.61,3.71,1.83,5.03,1.22,1.32,2.82,2.46,4.8,3.43,1.98,.97,4.21,1.81,6.71,2.51,2.49,.71,4.95,1.47,7.39,2.29,9.75,3.25,16.89,7.6,21.41,13.03,4.52,5.44,6.78,12.52,6.78,21.26,0,5.89-.99,11.23-2.97,16-1.98,4.78-4.88,8.87-8.69,12.27-3.81,3.41-8.48,6.05-14.02,7.92-5.54,1.88-11.81,2.82-18.82,2.82-14.53,0-27.99-4.32-40.39-12.95l12.8-24.08c4.47,3.96,8.89,6.91,13.26,8.84,4.37,1.93,8.69,2.9,12.95,2.9,4.88,0,8.51-1.12,10.9-3.35,2.39-2.23,3.58-4.77,3.58-7.62,0-1.73-.3-3.22-.91-4.5-.61-1.27-1.63-2.44-3.05-3.5-1.42-1.07-3.28-2.06-5.56-2.97-2.29-.91-5.06-1.93-8.31-3.05-3.86-1.22-7.65-2.56-11.35-4.04-3.71-1.47-7.01-3.43-9.91-5.87-2.9-2.44-5.23-5.51-7.01-9.22-1.78-3.71-2.67-8.41-2.67-14.1s.94-10.84,2.82-15.47c1.88-4.62,4.52-8.58,7.92-11.89,3.4-3.3,7.57-5.87,12.5-7.7,4.93-1.83,10.44-2.74,16.54-2.74,5.69,0,11.63,.79,17.83,2.36,6.2,1.58,12.14,3.89,17.83,6.93l-11.89,23.32Z"/>
    <path d="M167.09,73.18c-4.78-3.25-9.6-4.88-14.48-4.88-2.64,0-5.11,.46-7.39,1.37-2.29,.91-4.29,2.21-6.02,3.89-1.73,1.68-3.07,3.66-4.04,5.94-.97,2.29-1.45,4.85-1.45,7.7s.48,5.26,1.45,7.54c.96,2.29,2.29,4.27,3.96,5.94,1.68,1.68,3.68,2.97,6.02,3.89,2.34,.92,4.82,1.37,7.47,1.37,5.18,0,10.01-1.78,14.48-5.33v23.47c-6.81,2.95-13.26,4.42-19.35,4.42-5.69,0-11.1-.97-16.23-2.9-5.13-1.93-9.65-4.7-13.56-8.31-3.91-3.61-7.04-7.92-9.37-12.95-2.34-5.03-3.5-10.64-3.5-16.84s1.12-11.86,3.35-16.99c2.23-5.13,5.28-9.55,9.14-13.26,3.86-3.71,8.46-6.6,13.79-8.69,5.33-2.08,11.05-3.12,17.15-3.12,6.71,0,12.9,1.42,18.59,4.27v23.47Z"/>
    <path d="M186.6-.42h27.58V57.79c3.76-4.57,7.57-7.64,11.43-9.22,3.86-1.57,8.38-2.36,13.56-2.36,9.85,0,17.3,2.72,22.33,8.15,5.03,5.44,7.54,12.78,7.54,22.02v49.68h-27.58v-39.47c0-3.96-.3-7.16-.91-9.6-.61-2.44-1.63-4.32-3.05-5.64-2.44-2.13-5.39-3.2-8.84-3.2-4.67,0-8.26,1.4-10.74,4.19-2.49,2.8-3.73,6.78-3.73,11.96v41.76h-27.58V-.42Z"/>
    <path d="M284.74,86.29c0-5.79,1.17-11.2,3.5-16.23,2.34-5.03,5.59-9.4,9.75-13.11,4.17-3.71,9.12-6.63,14.86-8.76,5.74-2.13,12.01-3.2,18.82-3.2s12.93,1.04,18.67,3.12c5.74,2.08,10.72,4.98,14.94,8.69,4.21,3.71,7.49,8.13,9.83,13.26,2.34,5.13,3.51,10.8,3.51,16.99s-1.2,11.86-3.58,16.99c-2.39,5.13-5.67,9.55-9.83,13.26-4.17,3.71-9.17,6.58-15.01,8.61-5.84,2.03-12.17,3.05-18.97,3.05s-12.9-1.02-18.59-3.05c-5.69-2.03-10.59-4.93-14.71-8.69-4.11-3.76-7.34-8.25-9.68-13.49-2.34-5.23-3.5-11.05-3.5-17.45Zm29.11,.3c0,2.64,.48,5.06,1.45,7.24,.96,2.19,2.23,4.09,3.81,5.72,1.57,1.63,3.45,2.9,5.64,3.81,2.18,.91,4.5,1.37,6.93,1.37s4.75-.46,6.93-1.37c2.18-.91,4.06-2.18,5.64-3.81,1.57-1.62,2.84-3.53,3.81-5.72,.96-2.18,1.45-4.55,1.45-7.09s-.48-4.75-1.45-6.93c-.97-2.18-2.24-4.09-3.81-5.71-1.58-1.62-3.46-2.9-5.64-3.81-2.19-.91-4.5-1.37-6.93-1.37s-4.75,.46-6.93,1.37c-2.19,.91-4.06,2.19-5.64,3.81-1.58,1.63-2.85,3.5-3.81,5.64-.97,2.13-1.45,4.42-1.45,6.86Z"/>
    <path d="M391.42,86.29c0-5.79,1.17-11.2,3.5-16.23,2.34-5.03,5.59-9.4,9.75-13.11,4.17-3.71,9.12-6.63,14.86-8.76,5.74-2.13,12.01-3.2,18.82-3.2s12.93,1.04,18.67,3.12c5.74,2.08,10.72,4.98,14.93,8.69,4.21,3.71,7.49,8.13,9.83,13.26,2.34,5.13,3.5,10.8,3.5,16.99s-1.2,11.86-3.58,16.99c-2.39,5.13-5.67,9.55-9.83,13.26-4.17,3.71-9.17,6.58-15.01,8.61-5.84,2.03-12.17,3.05-18.97,3.05s-12.9-1.02-18.59-3.05c-5.69-2.03-10.59-4.93-14.71-8.69-4.11-3.76-7.34-8.25-9.68-13.49-2.34-5.23-3.5-11.05-3.5-17.45Zm29.11,.3c0,2.64,.48,5.06,1.45,7.24,.96,2.19,2.23,4.09,3.81,5.72,1.57,1.63,3.45,2.9,5.64,3.81,2.18,.91,4.5,1.37,6.93,1.37s4.75-.46,6.93-1.37c2.18-.91,4.06-2.18,5.64-3.81,1.57-1.62,2.84-3.53,3.81-5.72,.96-2.18,1.45-4.55,1.45-7.09s-.48-4.75-1.45-6.93c-.97-2.18-2.24-4.09-3.81-5.71-1.58-1.62-3.46-2.9-5.64-3.81-2.19-.91-4.5-1.37-6.93-1.37s-4.75,.46-6.93,1.37c-2.19,.91-4.06,2.19-5.64,3.81-1.58,1.63-2.85,3.5-3.81,5.64-.97,2.13-1.45,4.42-1.45,6.86Z"/>
    <path d="M528.73-.42V126.07h-27.58V-.42h27.58Z"/>
    <path class="cls-1" d="M615.34,27.47h-46.06v27.61h44.72v16.3h-44.72v38.4h46.06v16.3h-63.4V11.17h63.4V27.47Z"/>
    <path class="cls-1" d="M643.92,53.59l18.75,40.7,18.68-40.7h18.83l-37.65,77.46-37.36-77.46h18.75Z"/>
    <path class="cls-1" d="M774.89,93.77h-51.94c.45,5.95,2.38,10.69,5.8,14.21,3.42,3.47,7.81,5.21,13.17,5.21,4.17,0,7.61-.99,10.34-2.98,2.68-1.98,5.73-5.66,9.15-11.01l14.14,7.89c-2.18,3.72-4.49,6.91-6.92,9.56-2.43,2.65-5.04,4.84-7.81,6.55-2.78,1.71-5.78,2.96-9,3.76-3.23,.79-6.72,1.19-10.49,1.19-10.82,0-19.5-3.47-26.04-10.42-6.55-7-9.82-16.27-9.82-27.83s3.17-20.74,9.53-27.83c6.4-6.99,14.88-10.49,25.45-10.49s19.1,3.4,25.3,10.19c6.15,6.75,9.23,16.1,9.23,28.05l-.07,3.94Zm-17.19-13.69c-2.33-8.93-7.96-13.39-16.89-13.39-2.04,0-3.94,.31-5.73,.93-1.79,.62-3.41,1.51-4.87,2.68-1.46,1.17-2.72,2.57-3.76,4.2s-1.84,3.5-2.38,5.58h33.63Z"/>
    <path class="cls-1" d="M793.19,53.59h16.82v6.7c5.85-5.8,12.45-8.71,19.79-8.71,8.43,0,15.01,2.65,19.72,7.96,4.07,4.51,6.1,11.88,6.1,22.1v44.42h-16.82v-40.48c0-7.14-.99-12.08-2.98-14.81-1.93-2.78-5.46-4.17-10.57-4.17-5.56,0-9.5,1.84-11.83,5.51-2.28,3.62-3.42,9.95-3.42,18.98v34.97h-16.82V53.59Z"/>
    <path class="cls-1" d="M894.02,69.21v56.85h-16.74v-56.85h-7.14v-15.63h7.14V27.02h16.74v26.57h13.02v15.63h-13.02Z"/>
  </g>
</svg>