<?xml version="1.0" encoding="UTF-8"?>
<svg id="Layer_2" data-name="Layer 2" xmlns="http://www.w3.org/2000/svg" viewBox="0 0 405.59 466.76">
  <defs>
    <style>
      .cls-1 {
        fill: #f78e1e;
      }

      .cls-2 {
        fill: #fff;
      }
    </style>
  </defs>
  <g id="Body">
    <path class="cls-2" d="M405.59,415.21c0,24.24-116.84,51.55-202.79,51.55h-.02C116.83,466.76,0,439.45,0,415.21s30.75-52.83,43.41-63.14c11.69-9.52,35.3-25.77,55.76-31.81,.01,0,.02,0,.04,0,.1-.03,.2-.06,.31-.09,.86-.25,1.73-.49,2.58-.71,2.05-.42,3.79-.35,5.13,.99,1.93,1.93,60.14,59.42,69.19,68.17,9.04,8.73,22.97,25.16,26.38,25.16s17.32-16.43,26.36-25.16c9.05-8.75,67.26-66.24,69.19-68.17,1.34-1.34,3.08-1.41,5.13-.99,.85,.22,1.72,.46,2.59,.71,.1,.03,.2,.06,.3,.09,.02,0,.03,0,.05,0,20.45,6.04,44.06,22.29,55.75,31.81,12.66,10.31,43.42,38.9,43.42,63.14Z"/>
  </g>
  <g id="Face">
    <path class="cls-2" d="M293.49,154.42v30.2s-34.1,13.81-53.21,21.55c-19.12,7.75-30.79,13.46-37.48,13.46s-18.36-5.71-37.47-13.46c-19.11-7.74-53.22-21.55-53.22-21.55v-30.2c-6.92-3.27-13.89-6.57-20.73-9.8v60.99c0,38.78,29.04,135.64,111.42,135.64s111.42-96.86,111.42-135.64v-60.99c-6.84,3.23-13.81,6.53-20.73,9.8Z"/>
  </g>
  <g id="Hat">
    <path class="cls-2" d="M397.11,91.54c0,7.01-9.8,12.46-9.8,12.52-3.93,1.85-177.25,83.81-177.25,83.81l-7.26,3.43-7.27-3.43S22.23,105.92,18.28,104.06c0-.06-9.8-5.51-9.8-12.52,0-7.54,8.36-11.88,9.69-12.47,1.33-.59,169.39-74.63,171.34-75.48,2.92-1.27,7.55-3.59,13.29-3.59s10.36,2.32,13.28,3.59c1.95,.85,170.01,74.89,171.34,75.48,1.34,.59,9.69,4.93,9.69,12.47Z"/>
    <path class="cls-1" d="M234.04,93.27c.45,2.23-14,16.61-31.24,16.61s-31.72-14.38-31.28-16.61c.43-2.12,3.25-2.91,19.16-9.13-.32-.48-.61-.98-.87-1.5-35.53,9.53-132.01,35.4-135.15,36.33-4.71,1.33-5.4,3.69-5.4,7.07v31.03c4.04,0,10.08,7.48,9.72,14.42v35.29c0,3.24-1.21,6.25-5.92,6.25s-5.92-3.01-5.92-6.25v-33.24c0-3.65-2.51-5.22-6.94-5.22s-6.94,1.62-6.94,5.22v33.24c0,3.24-1.2,6.25-5.92,6.25s-5.92-3.01-5.92-6.25v-35.29c-.36-6.94,4.04-14.11,8.76-14.11v-42.36c0-3.67,1.05-6.4,4.95-7.51,1.69-.47,124.53-33.66,158.84-42.93,2.45-1.86,5.5-2.98,8.82-2.98,8.02,0,14.53,6.5,14.53,14.53,0,2.96-.89,5.72-2.42,8.02,15.89,6.21,18.71,7,19.14,9.12Z"/>
  </g>
</svg>